<svg xmlns="http://www.w3.org/2000/svg" viewBox="0 0 1440 320">





<path class="wave-1" fill="#e94f37" fill-opacity="0.33" d="M0,64L24,58.7C48,53,96,43,144,48C192,53,240,75,288,96C336,117,384,139,432,165.3C480,192,528,224,576,234.7C624,245,672,235,720,208C768,181,816,139,864,101.3C912,64,960,32,1008,26.7C1056,21,1104,43,1152,96C1200,149,1248,235,1296,245.3C1344,256,1392,192,1416,160L1440,128L1440,320L1416,320C1392,320,1344,320,1296,320C1248,320,1200,320,1152,320C1104,320,1056,320,1008,320C960,320,912,320,864,320C816,320,768,320,720,320C672,320,624,320,576,320C528,320,480,320,432,320C384,320,336,320,288,320C240,320,192,320,144,320C96,320,48,320,24,320L0,320Z"></path>

</svg>
